<svg width="415" height="275" viewBox="0 0 415 275" fill="none" xmlns="http://www.w3.org/2000/svg">
<path d="M301.266 42.1735C292.553 44.3476 284.459 47.7249 277.087 52.0518C252.287 12.796 204.282 -8.03699 156.742 3.82599C101.877 17.517 66.917 69.9376 73.7018 124.641C66.973 124.286 60.077 124.907 53.1973 126.624C15.9611 135.915 -6.69548 173.614 2.59097 210.829C11.8774 248.044 49.5896 270.678 86.8258 261.386C95.0776 259.327 102.608 255.868 109.241 251.33C128.027 270.308 156.052 279.186 183.851 272.249C201.701 267.794 216.56 257.529 226.951 243.986C242.486 251.06 260.424 253.141 278.278 248.685C295.411 244.41 309.801 234.787 320.116 222.048C328.46 222.338 336.981 221.511 345.486 219.388C394.451 207.17 424.247 157.591 412.035 108.655C399.823 59.7182 350.231 29.9548 301.266 42.1735Z" fill="url(#paint0_linear_233_2449)"/>
<defs>
<linearGradient id="paint0_linear_233_2449" x1="417.988" y1="72.6216" x2="141.891" y2="90.1671" gradientUnits="userSpaceOnUse">
<stop stop-color="#3E45C5"/>
<stop offset="1" stop-color="#3E46C7"/>
</linearGradient>
</defs>
</svg>
