<svg width="146" height="17" viewBox="0 0 146 17" fill="none" xmlns="http://www.w3.org/2000/svg">
<path d="M3.64801 16.5L0.370014 1.98H3.82401L5.98001 13.794H6.22201L8.77401 1.98H12.8L15.352 13.794H15.616L17.772 1.98H21.05L17.728 16.5H13.306L10.842 4.686H10.644L8.18001 16.5H3.64801ZM27.8461 16.808C26.8928 16.808 26.0421 16.676 25.2941 16.412C24.5608 16.148 23.9375 15.7667 23.4241 15.268C22.9108 14.7693 22.5148 14.1533 22.2361 13.42C21.9721 12.6867 21.8401 11.858 21.8401 10.934C21.8401 10.0247 21.9648 9.18867 22.2141 8.426C22.4781 7.64867 22.8595 6.98133 23.3581 6.424C23.8568 5.852 24.4655 5.412 25.1841 5.104C25.9028 4.796 26.7168 4.642 27.6261 4.642C28.5061 4.642 29.2908 4.78867 29.9801 5.082C30.6695 5.36067 31.2415 5.786 31.6961 6.358C32.1655 6.93 32.5028 7.634 32.7081 8.47C32.9281 9.29133 33.0088 10.2373 32.9501 11.308L23.8861 11.396V9.658L31.1241 9.592L30.0021 10.472C30.1048 9.69467 30.0535 9.05667 29.8481 8.558C29.6428 8.05933 29.3421 7.69267 28.9461 7.458C28.5648 7.22333 28.1395 7.106 27.6701 7.106C27.1128 7.106 26.6215 7.25267 26.1961 7.546C25.7708 7.83933 25.4408 8.272 25.2061 8.844C24.9715 9.40133 24.8541 10.076 24.8541 10.868C24.8541 12.1147 25.1255 13.0313 25.6681 13.618C26.2255 14.2047 26.9515 14.498 27.8461 14.498C28.2568 14.498 28.6015 14.4467 28.8801 14.344C29.1735 14.2267 29.4081 14.08 29.5841 13.904C29.7748 13.728 29.9215 13.53 30.0241 13.31C30.1415 13.09 30.2368 12.87 30.3101 12.65L33.0601 13.244C32.9281 13.7867 32.7301 14.278 32.4661 14.718C32.2168 15.1433 31.8795 15.5173 31.4541 15.84C31.0288 16.148 30.5155 16.3827 29.9141 16.544C29.3275 16.72 28.6381 16.808 27.8461 16.808ZM37.9888 16.808C37.3435 16.808 36.7715 16.6833 36.2728 16.434C35.7741 16.17 35.3855 15.796 35.1068 15.312C34.8281 14.828 34.6888 14.2267 34.6888 13.508C34.6888 12.8773 34.8061 12.3493 35.0408 11.924C35.2901 11.4987 35.6495 11.154 36.1188 10.89C36.5881 10.626 37.1675 10.406 37.8568 10.23C38.5461 10.054 39.3308 9.9 40.2108 9.768C40.6801 9.69467 41.0615 9.62867 41.3548 9.57C41.6628 9.49667 41.8901 9.38667 42.0368 9.24C42.1835 9.07867 42.2568 8.85133 42.2568 8.558C42.2568 8.14733 42.1101 7.79533 41.8168 7.502C41.5235 7.20867 41.0615 7.062 40.4308 7.062C40.0055 7.062 39.6095 7.13533 39.2428 7.282C38.8908 7.42867 38.5828 7.64867 38.3188 7.942C38.0695 8.23533 37.8861 8.60933 37.7688 9.064L34.9748 8.206C35.1508 7.60467 35.4001 7.084 35.7228 6.644C36.0601 6.204 36.4635 5.83733 36.9328 5.544C37.4021 5.236 37.9375 5.00867 38.5388 4.862C39.1401 4.71533 39.7928 4.642 40.4968 4.642C41.6261 4.642 42.5428 4.82533 43.2468 5.192C43.9655 5.544 44.5008 6.10133 44.8528 6.864C45.2048 7.612 45.3808 8.58 45.3808 9.768V11.748C45.3808 12.2613 45.3881 12.782 45.4028 13.31C45.4321 13.838 45.4615 14.3733 45.4908 14.916C45.5348 15.444 45.5788 15.972 45.6228 16.5H42.8288C42.7701 16.1333 42.7115 15.7153 42.6528 15.246C42.6088 14.762 42.5721 14.278 42.5428 13.794H42.1468C41.9415 14.3513 41.6481 14.8573 41.2668 15.312C40.8855 15.7667 40.4161 16.1333 39.8588 16.412C39.3161 16.676 38.6928 16.808 37.9888 16.808ZM39.3308 14.52C39.6095 14.52 39.8881 14.4687 40.1668 14.366C40.4601 14.2633 40.7388 14.124 41.0028 13.948C41.2815 13.7573 41.5308 13.5227 41.7508 13.244C41.9855 12.9653 42.1761 12.65 42.3228 12.298L42.2788 10.45L42.7848 10.56C42.5208 10.7507 42.2128 10.9047 41.8608 11.022C41.5088 11.1247 41.1421 11.2053 40.7608 11.264C40.3941 11.3227 40.0275 11.3887 39.6608 11.462C39.2941 11.5353 38.9641 11.6307 38.6708 11.748C38.3921 11.8653 38.1648 12.0267 37.9888 12.232C37.8275 12.4227 37.7468 12.694 37.7468 13.046C37.7468 13.5007 37.8935 13.86 38.1868 14.124C38.4801 14.388 38.8615 14.52 39.3308 14.52ZM52.442 16.764C51.1513 16.764 50.198 16.4267 49.582 15.752C48.9806 15.0627 48.68 13.97 48.68 12.474V7.436H47.008L47.052 4.95H48.218C48.6726 4.95 49.01 4.884 49.23 4.752C49.45 4.62 49.582 4.378 49.626 4.026L49.912 2.376H51.716V4.95H54.642V7.524H51.716V12.342C51.716 12.87 51.8406 13.2513 52.09 13.486C52.3393 13.7207 52.7206 13.838 53.234 13.838C53.5126 13.838 53.7766 13.8087 54.026 13.75C54.29 13.6913 54.5173 13.596 54.708 13.464V16.412C54.2533 16.5587 53.8353 16.654 53.454 16.698C53.0726 16.742 52.7353 16.764 52.442 16.764ZM56.8961 16.5V9.24V0.769999H60.0861V4.378C60.0861 4.67133 60.0714 4.97933 60.0421 5.302C60.0274 5.62467 59.9908 5.95467 59.9321 6.292C59.8881 6.61467 59.8368 6.94467 59.7781 7.282C59.7341 7.61933 59.6828 7.95667 59.6241 8.294H60.1081C60.3134 7.546 60.5701 6.90067 60.8781 6.358C61.2008 5.81533 61.6114 5.39733 62.1101 5.104C62.6088 4.796 63.2394 4.642 64.0021 4.642C65.3514 4.642 66.3634 5.11867 67.0381 6.072C67.7128 7.01067 68.0501 8.45533 68.0501 10.406V16.5H64.8601V10.89C64.8601 9.658 64.6768 8.74867 64.3101 8.162C63.9581 7.56067 63.4228 7.26 62.7041 7.26C62.1174 7.26 61.6334 7.436 61.2521 7.788C60.8708 8.14 60.5848 8.61667 60.3941 9.218C60.2034 9.80467 60.0934 10.4647 60.0641 11.198V16.5H56.8961ZM76.143 16.808C75.1897 16.808 74.339 16.676 73.591 16.412C72.8577 16.148 72.2343 15.7667 71.721 15.268C71.2077 14.7693 70.8117 14.1533 70.533 13.42C70.269 12.6867 70.137 11.858 70.137 10.934C70.137 10.0247 70.2617 9.18867 70.511 8.426C70.775 7.64867 71.1563 6.98133 71.655 6.424C72.1537 5.852 72.7623 5.412 73.481 5.104C74.1997 4.796 75.0137 4.642 75.923 4.642C76.803 4.642 77.5877 4.78867 78.277 5.082C78.9663 5.36067 79.5383 5.786 79.993 6.358C80.4623 6.93 80.7997 7.634 81.005 8.47C81.225 9.29133 81.3057 10.2373 81.247 11.308L72.183 11.396V9.658L79.421 9.592L78.299 10.472C78.4017 9.69467 78.3503 9.05667 78.145 8.558C77.9397 8.05933 77.639 7.69267 77.243 7.458C76.8617 7.22333 76.4363 7.106 75.967 7.106C75.4097 7.106 74.9183 7.25267 74.493 7.546C74.0677 7.83933 73.7377 8.272 73.503 8.844C73.2683 9.40133 73.151 10.076 73.151 10.868C73.151 12.1147 73.4223 13.0313 73.965 13.618C74.5223 14.2047 75.2483 14.498 76.143 14.498C76.5537 14.498 76.8983 14.4467 77.177 14.344C77.4703 14.2267 77.705 14.08 77.881 13.904C78.0717 13.728 78.2183 13.53 78.321 13.31C78.4383 13.09 78.5337 12.87 78.607 12.65L81.357 13.244C81.225 13.7867 81.027 14.278 80.763 14.718C80.5137 15.1433 80.1763 15.5173 79.751 15.84C79.3257 16.148 78.8123 16.3827 78.211 16.544C77.6243 16.72 76.935 16.808 76.143 16.808ZM83.5582 16.5V10.912V4.95H86.1762L86.1982 8.888H86.6162C86.7335 7.90533 86.9315 7.106 87.2102 6.49C87.5035 5.874 87.9069 5.41933 88.4202 5.126C88.9335 4.83267 89.5715 4.686 90.3342 4.686C90.4662 4.686 90.6055 4.69333 90.7522 4.708C90.9135 4.708 91.0969 4.73 91.3022 4.774L91.1702 8.14C90.9502 8.03733 90.7082 7.964 90.4442 7.92C90.1802 7.876 89.9455 7.854 89.7402 7.854C89.1682 7.854 88.6769 7.986 88.2662 8.25C87.8555 8.514 87.5182 8.89533 87.2542 9.394C87.0049 9.878 86.8362 10.472 86.7482 11.176V16.5H83.5582ZM98.3216 16.5V1.98H102.458L109.036 12.254H109.278L109.08 1.98H112.16V16.5H108.42L101.468 5.742H101.226L101.424 16.5H98.3216ZM120.462 16.808C119.304 16.808 118.284 16.5807 117.404 16.126C116.524 15.6567 115.835 14.9747 115.336 14.08C114.838 13.1707 114.588 12.0413 114.588 10.692C114.588 9.34267 114.838 8.22067 115.336 7.326C115.85 6.43133 116.546 5.764 117.426 5.324C118.321 4.86933 119.333 4.642 120.462 4.642C121.621 4.642 122.64 4.86933 123.52 5.324C124.415 5.77867 125.112 6.46067 125.61 7.37C126.124 8.26467 126.38 9.38667 126.38 10.736C126.38 12.1 126.116 13.2367 125.588 14.146C125.075 15.0407 124.371 15.708 123.476 16.148C122.596 16.588 121.592 16.808 120.462 16.808ZM120.572 14.454C121.144 14.454 121.621 14.322 122.002 14.058C122.398 13.794 122.692 13.398 122.882 12.87C123.088 12.3273 123.19 11.6747 123.19 10.912C123.19 10.1053 123.08 9.42333 122.86 8.866C122.655 8.294 122.347 7.86133 121.936 7.568C121.526 7.26 121.005 7.106 120.374 7.106C119.832 7.106 119.362 7.238 118.966 7.502C118.57 7.75133 118.27 8.14733 118.064 8.69C117.859 9.218 117.756 9.87067 117.756 10.648C117.756 11.8947 118.006 12.8407 118.504 13.486C119.003 14.1313 119.692 14.454 120.572 14.454ZM130.306 16.5L127.446 4.95H130.746L132.374 13.992H132.792L134.728 4.95H138.534L140.536 13.992H140.954L142.538 4.95H145.772L142.89 16.5H138.534L136.73 7.524H136.356L134.64 16.5H130.306Z" fill="white"/>
</svg>
